# xmcd CD database file
# Copyright (C) 1993-1998 Ti Kan
#
# Track frame offsets:
#	182
#	13960
#	23147
#	35275
#	42422
#	55115
#	63147
#	72135
#	86490
#	98135
#	106362
#	123267
#	135730
#	144500
#	152870
#	167027
#	178822
#	189407
#	200105
#	218530
#	227172
#	234557
#	242672
#	255515
#
# Disc length: 3522 seconds
#
# Revision: 2
# Processed by: cddbd v1.4PL0 Copyright (c) Steve Scherf et al.
# Submitted via: Gronk 1.4
#
DISCID=4b0dc018
DTITLE=Roy Lanham - Sizzling Strings - Fabulous Guitar
DYEAR=1900
DGENRE=country
TTITLE0=Summit Ridge Drive
TTITLE1=Stomping At The Savoy
TTITLE2=Sophisticated Swing
TTITLE3=Kerry Dance
TTITLE4=Lover
TTITLE5=Tea For Two
TTITLE6=Air Mail Special
TTITLE7=If I Had You
TTITLE8=Slipped Disc
TTITLE9=Mellow Mood
TTITLE10=Eager Beaver
TTITLE11=Tuxedo Junction
TTITLE12=Your Heart Darlin'
TTITLE13=Holiday For Strings
TTITLE14=Roy's Blues
TTITLE15=Tuxedo Junction
TTITLE16=We'll Be Together Again
TTITLE17=Brazil
TTITLE18=In the Mood
TTITLE19=Under The Double Eagle
TTITLE20=Brown's Ferry Blues
TTITLE21=Carnival In Paris
TTITLE22=One Love
TTITLE23=Can't We Be Friends
EXTD=
EXTT0=
EXTT1=
EXTT2=
EXTT3=
EXTT4=
EXTT5=
EXTT6=
EXTT7=
EXTT8=
EXTT9=
EXTT10=
EXTT11=
EXTT12=
EXTT13=
EXTT14=
EXTT15=
EXTT16=
EXTT17=
EXTT18=
EXTT19=
EXTT20=
EXTT21=
EXTT22=
EXTT23=
PLAYORDER=
